<svg width="167" height="88" viewBox="0 0 167 88" fill="none" xmlns="http://www.w3.org/2000/svg">
<path d="M58.396 21.73C59.936 21.73 61.196 21.9633 62.176 22.43C63.1793 22.8733 64.066 23.3983 64.836 24.005C65.3026 24.355 65.6526 24.4017 65.886 24.145C66.1426 23.865 66.3176 23.2233 66.411 22.22H67.216C67.1693 23.13 67.1343 24.2383 67.111 25.545C67.0876 26.8283 67.076 28.5433 67.076 30.69H66.271C66.1543 29.6167 66.0026 28.7067 65.816 27.96C65.6293 27.19 65.3726 26.5133 65.046 25.93C64.7193 25.3467 64.2526 24.8217 63.646 24.355C63.0626 23.7717 62.386 23.34 61.616 23.06C60.846 22.78 60.041 22.64 59.201 22.64C57.941 22.64 56.8676 22.9783 55.981 23.655C55.0943 24.3083 54.371 25.2067 53.811 26.35C53.2743 27.4933 52.8776 28.7883 52.621 30.235C52.3643 31.6583 52.236 33.14 52.236 34.68C52.236 36.2433 52.3643 37.7483 52.621 39.195C52.901 40.6183 53.321 41.89 53.881 43.01C54.4643 44.13 55.211 45.0167 56.121 45.67C57.031 46.3233 58.1043 46.65 59.341 46.65C60.111 46.65 60.881 46.51 61.651 46.23C62.4443 45.9267 63.121 45.495 63.681 44.935C64.591 44.235 65.2093 43.3717 65.536 42.345C65.8626 41.295 66.1076 39.9067 66.271 38.18H67.076C67.076 40.3967 67.0876 42.1933 67.111 43.57C67.1343 44.9233 67.1693 46.0667 67.216 47H66.411C66.3176 45.9967 66.1543 45.3667 65.921 45.11C65.711 44.8533 65.3493 44.8883 64.836 45.215C63.9726 45.8217 63.051 46.3583 62.071 46.825C61.1143 47.2683 59.8776 47.49 58.361 47.49C55.8876 47.49 53.7176 46.9883 51.851 45.985C50.0076 44.9817 48.5726 43.535 47.546 41.645C46.5193 39.755 46.006 37.48 46.006 34.82C46.006 32.2067 46.531 29.92 47.581 27.96C48.6543 26 50.1126 24.4717 51.956 23.375C53.8226 22.2783 55.9693 21.73 58.396 21.73ZM80.7287 22.15C81.6387 22.15 82.3737 22.22 82.9337 22.36C83.4937 22.4767 83.972 22.6517 84.3687 22.885C84.742 23.0483 85.0804 23.2583 85.3837 23.515C85.7104 23.7717 85.9787 24.0867 86.1887 24.46C86.3987 24.8333 86.5037 25.2533 86.5037 25.72C86.5037 26.42 86.2354 26.98 85.6987 27.4C85.162 27.82 84.532 28.03 83.8087 28.03C83.1087 28.03 82.502 27.855 81.9887 27.505C81.4987 27.155 81.2537 26.6067 81.2537 25.86C81.2537 25.2767 81.4637 24.7517 81.8837 24.285C82.3037 23.795 82.8404 23.4917 83.4937 23.375C83.3304 23.1883 83.027 23.0367 82.5837 22.92C82.1637 22.8033 81.697 22.745 81.1837 22.745C79.9704 22.745 78.932 23.13 78.0687 23.9C77.2287 24.6467 76.8087 25.79 76.8087 27.33C76.8087 27.8667 76.902 28.4383 77.0887 29.045C77.2754 29.6517 77.637 30.27 78.1737 30.9C78.5704 30.8067 78.932 30.7367 79.2587 30.69C79.6087 30.6433 79.9004 30.62 80.1337 30.62C80.5537 30.62 80.8687 30.7133 81.0787 30.9C81.312 31.0633 81.4287 31.285 81.4287 31.565C81.4287 31.775 81.3354 31.95 81.1487 32.09C80.962 32.23 80.7287 32.3 80.4487 32.3C80.052 32.3 79.6437 32.195 79.2237 31.985C78.8037 31.7517 78.4654 31.5533 78.2087 31.39C77.112 31.95 76.2137 32.6733 75.5137 33.56C74.837 34.4233 74.4987 35.59 74.4987 37.06C74.4987 38.6 74.9187 39.8717 75.7587 40.875C76.5987 41.855 77.777 42.6017 79.2937 43.115C80.8337 43.605 82.642 43.85 84.7187 43.85C85.8854 43.85 87.0404 43.7217 88.1837 43.465C89.327 43.2083 90.3537 42.8233 91.2637 42.31C92.197 41.7967 92.9437 41.1667 93.5037 40.42C94.0637 39.65 94.3437 38.7633 94.3437 37.76C94.3437 37.3867 94.2854 36.92 94.1687 36.36C94.0754 35.7767 93.8304 35.205 93.4337 34.645C93.037 34.0617 92.3837 33.5833 91.4737 33.21L91.7187 32.895C92.9787 33.2917 93.9354 34.0383 94.5887 35.135C95.242 36.2317 95.5687 37.4917 95.5687 38.915C95.5687 40.5483 95.067 42.0183 94.0637 43.325C93.0604 44.6083 91.6487 45.6233 89.8287 46.37C88.032 47.1167 85.9204 47.49 83.4937 47.49C81.557 47.49 79.7954 47.2917 78.2087 46.895C76.6454 46.4983 75.292 45.9267 74.1487 45.18C73.0287 44.41 72.1537 43.4883 71.5237 42.415C70.917 41.3417 70.6137 40.1283 70.6137 38.775C70.6137 37.4683 70.882 36.36 71.4187 35.45C71.9787 34.5167 72.6554 33.7583 73.4487 33.175C74.242 32.5683 75.0354 32.1017 75.8287 31.775C76.622 31.4483 77.252 31.2267 77.7187 31.11C76.9954 30.8067 76.3304 30.4567 75.7237 30.06C75.1404 29.64 74.662 29.15 74.2887 28.59C73.9387 28.03 73.7637 27.4 73.7637 26.7C73.7637 25.9533 73.962 25.3 74.3587 24.74C74.7554 24.1567 75.2804 23.6783 75.9337 23.305C76.6104 22.9317 77.357 22.6517 78.1737 22.465C79.0137 22.255 79.8654 22.15 80.7287 22.15ZM94.4837 21.73C96.1404 21.73 97.482 22.1617 98.5087 23.025C99.5354 23.8883 100.049 25.1017 100.049 26.665C100.049 27.855 99.757 28.8583 99.1737 29.675C98.6137 30.4917 97.797 31.1567 96.7237 31.67C95.6737 32.1833 94.4137 32.5917 92.9437 32.895C92.617 33.0117 92.2087 33.1517 91.7187 33.315C91.2287 33.455 90.727 33.595 90.2137 33.735C89.7004 33.875 89.1987 34.015 88.7087 34.155C88.242 34.295 87.8337 34.4117 87.4837 34.505C85.6637 34.9017 84.2637 35.3567 83.2837 35.87C82.3037 36.36 81.8137 37.0367 81.8137 37.9C81.8137 38.4833 82.0004 38.985 82.3737 39.405C82.7704 39.825 83.2604 40.1517 83.8437 40.385C84.427 40.6183 85.0104 40.735 85.5937 40.735C85.757 40.735 85.932 40.7233 86.1187 40.7C86.3054 40.6533 86.4804 40.6067 86.6437 40.56C86.807 40.49 86.9237 40.4317 86.9937 40.385C86.4104 40.1983 85.967 39.9067 85.6637 39.51C85.3837 39.09 85.2437 38.6117 85.2437 38.075C85.2437 37.3283 85.512 36.7567 86.0487 36.36C86.5854 35.9633 87.2504 35.765 88.0437 35.765C88.8837 35.765 89.537 35.9867 90.0037 36.43C90.4937 36.8733 90.7387 37.445 90.7387 38.145C90.7387 38.8683 90.517 39.475 90.0737 39.965C89.6304 40.4317 89.0354 40.7817 88.2887 41.015C87.542 41.225 86.702 41.33 85.7687 41.33C84.8587 41.33 83.9954 41.1667 83.1787 40.84C82.3854 40.5133 81.7437 40.0233 81.2537 39.37C80.787 38.6933 80.5537 37.8533 80.5537 36.85C80.5537 35.6133 80.8687 34.5867 81.4987 33.77C82.1287 32.93 83.027 32.2417 84.1937 31.705C85.3837 31.145 86.7837 30.7133 88.3937 30.41C88.8837 30.2933 89.4204 30.165 90.0037 30.025C90.6104 29.8617 91.2287 29.6983 91.8587 29.535C92.4887 29.3717 93.072 29.1967 93.6087 29.01C95.2887 28.59 96.5837 28.1233 97.4937 27.61C98.427 27.0967 98.8937 26.4083 98.8937 25.545C98.8937 24.915 98.6954 24.3667 98.2987 23.9C97.9254 23.41 97.4354 23.0367 96.8287 22.78C96.222 22.5 95.592 22.36 94.9387 22.36C94.7287 22.36 94.5304 22.3717 94.3437 22.395C94.1804 22.4183 94.0404 22.465 93.9237 22.535C94.507 22.745 94.9387 23.06 95.2187 23.48C95.4987 23.9 95.6387 24.32 95.6387 24.74C95.6387 25.4633 95.3704 26.0233 94.8337 26.42C94.297 26.7933 93.632 26.98 92.8387 26.98C92.0454 26.98 91.392 26.7817 90.8787 26.385C90.3654 25.965 90.1087 25.3933 90.1087 24.67C90.1087 24.04 90.2837 23.515 90.6337 23.095C91.007 22.6517 91.5204 22.3133 92.1737 22.08C92.827 21.8467 93.597 21.73 94.4837 21.73ZM112.034 22.15L120.539 44.06C120.866 44.9 121.228 45.4833 121.624 45.81C122.044 46.1133 122.418 46.2767 122.744 46.3V47C122.044 46.9533 121.216 46.93 120.259 46.93C119.326 46.9067 118.381 46.895 117.424 46.895C116.351 46.895 115.336 46.9067 114.379 46.93C113.423 46.93 112.664 46.9533 112.104 47V46.3C113.294 46.2533 114.041 46.055 114.344 45.705C114.671 45.3317 114.601 44.55 114.134 43.36L108.184 27.085L108.814 26.175L103.494 40.035C102.981 41.3183 102.666 42.3683 102.549 43.185C102.456 44.0017 102.514 44.6317 102.724 45.075C102.958 45.5183 103.319 45.8333 103.809 46.02C104.323 46.1833 104.929 46.2767 105.629 46.3V47C104.859 46.9533 104.124 46.93 103.424 46.93C102.724 46.9067 102.013 46.895 101.289 46.895C100.776 46.895 100.286 46.9067 99.8193 46.93C99.376 46.93 98.9793 46.9533 98.6293 47V46.3C99.1193 46.2067 99.621 45.8917 100.134 45.355C100.648 44.8183 101.149 43.9083 101.639 42.625L109.619 22.15C109.993 22.1733 110.389 22.185 110.809 22.185C111.253 22.185 111.661 22.1733 112.034 22.15ZM114.484 36.92V37.62H104.054L104.404 36.92H114.484ZM25.2171 62.336C25.7451 62.336 26.1771 62.416 26.5131 62.576C26.8571 62.728 27.1611 62.908 27.4251 63.116C27.5851 63.236 27.7051 63.252 27.7851 63.164C27.8731 63.068 27.9331 62.848 27.9651 62.504H28.2411C28.2251 62.816 28.2131 63.196 28.2051 63.644C28.1971 64.084 28.1931 64.672 28.1931 65.408H27.9171C27.8771 65.04 27.8251 64.728 27.7611 64.472C27.6971 64.208 27.6091 63.976 27.4971 63.776C27.3851 63.576 27.2251 63.396 27.0171 63.236C26.8171 63.036 26.5851 62.888 26.3211 62.792C26.0571 62.696 25.7811 62.648 25.4931 62.648C25.0611 62.648 24.6931 62.764 24.3891 62.996C24.0851 63.22 23.8371 63.528 23.6451 63.92C23.4611 64.312 23.3251 64.756 23.2371 65.252C23.1491 65.74 23.1051 66.248 23.1051 66.776C23.1051 67.312 23.1491 67.828 23.2371 68.324C23.3331 68.812 23.4771 69.248 23.6691 69.632C23.8691 70.016 24.1251 70.32 24.4371 70.544C24.7491 70.768 25.1171 70.88 25.5411 70.88C25.8051 70.88 26.0691 70.832 26.3331 70.736C26.6051 70.632 26.8371 70.484 27.0291 70.292C27.3411 70.052 27.5531 69.756 27.6651 69.404C27.7771 69.044 27.8611 68.568 27.9171 67.976H28.1931C28.1931 68.736 28.1971 69.352 28.2051 69.824C28.2131 70.288 28.2251 70.68 28.2411 71H27.9651C27.9331 70.656 27.8771 70.44 27.7971 70.352C27.7251 70.264 27.6011 70.276 27.4251 70.388C27.1291 70.596 26.8131 70.78 26.4771 70.94C26.1491 71.092 25.7251 71.168 25.2051 71.168C24.3571 71.168 23.6131 70.996 22.9731 70.652C22.3411 70.308 21.8491 69.812 21.4971 69.164C21.1451 68.516 20.9691 67.736 20.9691 66.824C20.9691 65.928 21.1491 65.144 21.5091 64.472C21.8771 63.8 22.3771 63.276 23.0091 62.9C23.6491 62.524 24.3851 62.336 25.2171 62.336ZM32.2981 64.628C32.8821 64.628 33.3941 64.736 33.8341 64.952C34.2741 65.168 34.6181 65.516 34.8661 65.996C35.1141 66.476 35.2381 67.112 35.2381 67.904C35.2381 68.696 35.1141 69.332 34.8661 69.812C34.6181 70.284 34.2741 70.628 33.8341 70.844C33.3941 71.06 32.8821 71.168 32.2981 71.168C31.7301 71.168 31.2221 71.06 30.7741 70.844C30.3341 70.628 29.9861 70.284 29.7301 69.812C29.4821 69.332 29.3581 68.696 29.3581 67.904C29.3581 67.112 29.4821 66.476 29.7301 65.996C29.9861 65.516 30.3341 65.168 30.7741 64.952C31.2221 64.736 31.7301 64.628 32.2981 64.628ZM32.2981 64.868C31.9781 64.868 31.7101 65.108 31.4941 65.588C31.2781 66.06 31.1701 66.832 31.1701 67.904C31.1701 68.976 31.2781 69.748 31.4941 70.22C31.7101 70.692 31.9781 70.928 32.2981 70.928C32.6261 70.928 32.8941 70.692 33.1021 70.22C33.3181 69.748 33.4261 68.976 33.4261 67.904C33.4261 66.832 33.3181 66.06 33.1021 65.588C32.8941 65.108 32.6261 64.868 32.2981 64.868ZM38.318 61.604V69.884C38.318 70.22 38.374 70.448 38.486 70.568C38.606 70.688 38.806 70.748 39.086 70.748V71C38.934 70.992 38.706 70.984 38.402 70.976C38.098 70.96 37.79 70.952 37.478 70.952C37.166 70.952 36.85 70.96 36.53 70.976C36.218 70.984 35.982 70.992 35.822 71V70.748C36.102 70.748 36.298 70.688 36.41 70.568C36.53 70.448 36.59 70.22 36.59 69.884V63.044C36.59 62.684 36.534 62.42 36.422 62.252C36.318 62.076 36.118 61.988 35.822 61.988V61.736C36.078 61.76 36.326 61.772 36.566 61.772C36.894 61.772 37.206 61.76 37.502 61.736C37.798 61.704 38.07 61.66 38.318 61.604ZM42.1149 61.604V69.884C42.1149 70.22 42.1709 70.448 42.2829 70.568C42.4029 70.688 42.6029 70.748 42.8829 70.748V71C42.7309 70.992 42.5029 70.984 42.1989 70.976C41.8949 70.96 41.5869 70.952 41.2749 70.952C40.9629 70.952 40.6469 70.96 40.3269 70.976C40.0149 70.984 39.7789 70.992 39.6189 71V70.748C39.8989 70.748 40.0949 70.688 40.2069 70.568C40.3269 70.448 40.3869 70.22 40.3869 69.884V63.044C40.3869 62.684 40.3309 62.42 40.2189 62.252C40.1149 62.076 39.9149 61.988 39.6189 61.988V61.736C39.8749 61.76 40.1229 61.772 40.3629 61.772C40.6909 61.772 41.0029 61.76 41.2989 61.736C41.5949 61.704 41.8669 61.66 42.1149 61.604ZM46.3723 64.628C47.0763 64.628 47.6283 64.836 48.0283 65.252C48.4283 65.668 48.6283 66.348 48.6283 67.292H44.6803L44.6563 67.064H47.1163C47.1243 66.672 47.1003 66.312 47.0443 65.984C46.9883 65.648 46.9003 65.38 46.7803 65.18C46.6603 64.98 46.5003 64.88 46.3003 64.88C46.0203 64.88 45.7803 65.056 45.5803 65.408C45.3883 65.76 45.2723 66.344 45.2323 67.16L45.2683 67.232C45.2603 67.328 45.2523 67.428 45.2443 67.532C45.2443 67.636 45.2443 67.744 45.2443 67.856C45.2443 68.408 45.3203 68.856 45.4723 69.2C45.6323 69.544 45.8323 69.796 46.0723 69.956C46.3123 70.108 46.5563 70.184 46.8043 70.184C46.9723 70.184 47.1443 70.16 47.3203 70.112C47.5043 70.056 47.6883 69.96 47.8723 69.824C48.0563 69.68 48.2283 69.48 48.3883 69.224L48.6043 69.296C48.5083 69.6 48.3563 69.896 48.1483 70.184C47.9403 70.472 47.6763 70.708 47.3563 70.892C47.0363 71.076 46.6523 71.168 46.2043 71.168C45.6603 71.168 45.1803 71.052 44.7643 70.82C44.3483 70.588 44.0203 70.236 43.7803 69.764C43.5483 69.292 43.4323 68.692 43.4323 67.964C43.4323 67.22 43.5563 66.6 43.8043 66.104C44.0603 65.608 44.4083 65.24 44.8483 65C45.2963 64.752 45.8043 64.628 46.3723 64.628ZM52.4432 64.628C52.7552 64.628 53.0392 64.664 53.2952 64.736C53.5592 64.8 53.7752 64.884 53.9432 64.988C54.1512 65.116 54.3112 65.276 54.4232 65.468C54.5432 65.652 54.6032 65.868 54.6032 66.116C54.6032 66.396 54.5152 66.628 54.3392 66.812C54.1632 66.988 53.9352 67.076 53.6552 67.076C53.3752 67.076 53.1512 66.996 52.9832 66.836C52.8152 66.676 52.7312 66.46 52.7312 66.188C52.7312 65.932 52.8112 65.72 52.9712 65.552C53.1312 65.376 53.3152 65.26 53.5232 65.204C53.4592 65.124 53.3632 65.056 53.2352 65C53.1072 64.944 52.9632 64.916 52.8032 64.916C52.5552 64.916 52.3352 64.988 52.1432 65.132C51.9592 65.276 51.8032 65.476 51.6752 65.732C51.5472 65.988 51.4472 66.288 51.3752 66.632C51.3112 66.976 51.2792 67.352 51.2792 67.76C51.2792 68.376 51.3552 68.86 51.5072 69.212C51.6672 69.564 51.8672 69.812 52.1072 69.956C52.3552 70.1 52.6112 70.172 52.8752 70.172C53.0272 70.172 53.1912 70.148 53.3672 70.1C53.5512 70.052 53.7352 69.956 53.9192 69.812C54.1112 69.668 54.2872 69.464 54.4472 69.2L54.6512 69.272C54.5632 69.568 54.4192 69.864 54.2192 70.16C54.0192 70.456 53.7592 70.7 53.4392 70.892C53.1192 71.076 52.7272 71.168 52.2632 71.168C51.7432 71.168 51.2712 71.056 50.8472 70.832C50.4312 70.6 50.0952 70.248 49.8392 69.776C49.5912 69.296 49.4672 68.68 49.4672 67.928C49.4672 67.208 49.5952 66.604 49.8512 66.116C50.1152 65.62 50.4712 65.248 50.9192 65C51.3672 64.752 51.8752 64.628 52.4432 64.628ZM57.7123 62.828V64.796H59.1283V65.036H57.7123V69.884C57.7123 70.124 57.7563 70.296 57.8443 70.4C57.9323 70.496 58.0643 70.544 58.2403 70.544C58.3843 70.544 58.5283 70.492 58.6723 70.388C58.8163 70.276 58.9443 70.088 59.0563 69.824L59.2603 69.932C59.1323 70.292 58.9363 70.588 58.6723 70.82C58.4163 71.052 58.0643 71.168 57.6163 71.168C57.3523 71.168 57.1203 71.132 56.9203 71.06C56.7203 70.996 56.5523 70.896 56.4163 70.76C56.2403 70.584 56.1243 70.368 56.0683 70.112C56.0123 69.848 55.9843 69.508 55.9843 69.092V65.036H54.9763V64.796H55.9843V63.212C56.3203 63.212 56.6283 63.184 56.9083 63.128C57.1963 63.064 57.4643 62.964 57.7123 62.828ZM61.055 61.7C61.391 61.7 61.655 61.784 61.847 61.952C62.047 62.112 62.147 62.336 62.147 62.624C62.147 62.912 62.047 63.14 61.847 63.308C61.655 63.468 61.391 63.548 61.055 63.548C60.719 63.548 60.451 63.468 60.251 63.308C60.059 63.14 59.963 62.912 59.963 62.624C59.963 62.336 60.059 62.112 60.251 61.952C60.451 61.784 60.719 61.7 61.055 61.7ZM61.991 64.664V69.884C61.991 70.22 62.047 70.448 62.159 70.568C62.279 70.688 62.479 70.748 62.759 70.748V71C62.615 70.992 62.391 70.984 62.087 70.976C61.783 70.96 61.475 70.952 61.163 70.952C60.851 70.952 60.535 70.96 60.215 70.976C59.895 70.984 59.655 70.992 59.495 71V70.748C59.775 70.748 59.971 70.688 60.083 70.568C60.203 70.448 60.263 70.22 60.263 69.884V66.104C60.263 65.744 60.207 65.48 60.095 65.312C59.991 65.136 59.791 65.048 59.495 65.048V64.796C59.751 64.82 59.999 64.832 60.239 64.832C60.575 64.832 60.887 64.82 61.175 64.796C61.471 64.764 61.743 64.72 61.991 64.664ZM66.3762 64.628C66.9602 64.628 67.4722 64.736 67.9122 64.952C68.3522 65.168 68.6962 65.516 68.9442 65.996C69.1922 66.476 69.3162 67.112 69.3162 67.904C69.3162 68.696 69.1922 69.332 68.9442 69.812C68.6962 70.284 68.3522 70.628 67.9122 70.844C67.4722 71.06 66.9602 71.168 66.3762 71.168C65.8082 71.168 65.3002 71.06 64.8522 70.844C64.4122 70.628 64.0642 70.284 63.8082 69.812C63.5602 69.332 63.4362 68.696 63.4362 67.904C63.4362 67.112 63.5602 66.476 63.8082 65.996C64.0642 65.516 64.4122 65.168 64.8522 64.952C65.3002 64.736 65.8082 64.628 66.3762 64.628ZM66.3762 64.868C66.0562 64.868 65.7882 65.108 65.5722 65.588C65.3562 66.06 65.2482 66.832 65.2482 67.904C65.2482 68.976 65.3562 69.748 65.5722 70.22C65.7882 70.692 66.0562 70.928 66.3762 70.928C66.7042 70.928 66.9722 70.692 67.1802 70.22C67.3962 69.748 67.5042 68.976 67.5042 67.904C67.5042 66.832 67.3962 66.06 67.1802 65.588C66.9722 65.108 66.7042 64.868 66.3762 64.868ZM74.5293 64.628C74.8653 64.628 75.1373 64.672 75.3453 64.76C75.5613 64.84 75.7293 64.952 75.8493 65.096C75.9773 65.248 76.0693 65.444 76.1253 65.684C76.1893 65.924 76.2213 66.248 76.2213 66.656V69.884C76.2213 70.22 76.2773 70.448 76.3893 70.568C76.5093 70.688 76.7093 70.748 76.9893 70.748V71C76.8373 70.992 76.6093 70.984 76.3053 70.976C76.0013 70.96 75.7013 70.952 75.4053 70.952C75.1013 70.952 74.8013 70.96 74.5053 70.976C74.2173 70.984 73.9973 70.992 73.8453 71V70.748C74.0853 70.748 74.2533 70.688 74.3493 70.568C74.4453 70.448 74.4933 70.22 74.4933 69.884V66.152C74.4933 65.952 74.4733 65.78 74.4333 65.636C74.3933 65.484 74.3213 65.368 74.2173 65.288C74.1133 65.2 73.9573 65.156 73.7493 65.156C73.5333 65.156 73.3333 65.216 73.1493 65.336C72.9733 65.456 72.8293 65.624 72.7173 65.84C72.6133 66.048 72.5613 66.284 72.5613 66.548V69.884C72.5613 70.22 72.6093 70.448 72.7053 70.568C72.8093 70.688 72.9773 70.748 73.2093 70.748V71C73.0653 70.992 72.8533 70.984 72.5733 70.976C72.3013 70.96 72.0173 70.952 71.7213 70.952C71.4173 70.952 71.1053 70.96 70.7853 70.976C70.4653 70.984 70.2253 70.992 70.0653 71V70.748C70.3453 70.748 70.5413 70.688 70.6533 70.568C70.7733 70.448 70.8333 70.22 70.8333 69.884V66.104C70.8333 65.744 70.7773 65.48 70.6653 65.312C70.5613 65.136 70.3613 65.048 70.0653 65.048V64.796C70.3213 64.82 70.5693 64.832 70.8093 64.832C71.1453 64.832 71.4573 64.82 71.7453 64.796C72.0413 64.764 72.3133 64.72 72.5613 64.664V65.744C72.7613 65.336 73.0333 65.048 73.3773 64.88C73.7213 64.712 74.1053 64.628 74.5293 64.628ZM79.8124 64.628C80.1484 64.628 80.4404 64.672 80.6884 64.76C80.9444 64.84 81.1284 64.92 81.2404 65C81.5124 65.184 81.6804 65.064 81.7444 64.64H81.9964C81.9804 64.864 81.9684 65.14 81.9604 65.468C81.9524 65.788 81.9484 66.216 81.9484 66.752H81.6964C81.6564 66.456 81.5804 66.164 81.4684 65.876C81.3564 65.588 81.1924 65.352 80.9764 65.168C80.7684 64.984 80.4964 64.892 80.1604 64.892C79.9284 64.892 79.7324 64.96 79.5724 65.096C79.4124 65.224 79.3324 65.412 79.3324 65.66C79.3324 65.9 79.4044 66.112 79.5484 66.296C79.6924 66.472 79.8764 66.644 80.1004 66.812C80.3324 66.972 80.5724 67.144 80.8204 67.328C81.0844 67.528 81.3244 67.728 81.5404 67.928C81.7564 68.12 81.9284 68.332 82.0564 68.564C82.1844 68.796 82.2484 69.072 82.2484 69.392C82.2484 69.752 82.1444 70.068 81.9364 70.34C81.7284 70.604 81.4524 70.808 81.1084 70.952C80.7724 71.096 80.3964 71.168 79.9804 71.168C79.7404 71.168 79.5244 71.144 79.3324 71.096C79.1484 71.048 78.9884 70.988 78.8524 70.916C78.7484 70.868 78.6484 70.824 78.5524 70.784C78.4644 70.736 78.3804 70.696 78.3004 70.664C78.2204 70.64 78.1484 70.668 78.0844 70.748C78.0284 70.828 77.9844 70.94 77.9524 71.084H77.7004C77.7164 70.828 77.7284 70.516 77.7364 70.148C77.7444 69.78 77.7484 69.292 77.7484 68.684H78.0004C78.0484 69.116 78.1364 69.5 78.2644 69.836C78.3924 70.164 78.5644 70.424 78.7804 70.616C79.0044 70.8 79.2844 70.892 79.6204 70.892C79.7564 70.892 79.8884 70.864 80.0164 70.808C80.1444 70.752 80.2484 70.66 80.3284 70.532C80.4164 70.404 80.4604 70.24 80.4604 70.04C80.4604 69.688 80.3444 69.396 80.1124 69.164C79.8884 68.932 79.6004 68.68 79.2484 68.408C78.9924 68.2 78.7484 67.996 78.5164 67.796C78.2924 67.588 78.1084 67.364 77.9644 67.124C77.8204 66.876 77.7484 66.596 77.7484 66.284C77.7484 65.924 77.8444 65.62 78.0364 65.372C78.2284 65.124 78.4804 64.94 78.7924 64.82C79.1124 64.692 79.4524 64.628 79.8124 64.628ZM89.4522 62.48C89.7642 62.48 90.0162 62.504 90.2082 62.552C90.4002 62.592 90.5642 62.652 90.7002 62.732C90.8282 62.788 90.9442 62.86 91.0482 62.948C91.1602 63.036 91.2522 63.144 91.3242 63.272C91.3962 63.4 91.4322 63.544 91.4322 63.704C91.4322 63.944 91.3402 64.136 91.1562 64.28C90.9722 64.424 90.7562 64.496 90.5082 64.496C90.2682 64.496 90.0602 64.436 89.8842 64.316C89.7162 64.196 89.6322 64.008 89.6322 63.752C89.6322 63.552 89.7042 63.372 89.8482 63.212C89.9922 63.044 90.1762 62.94 90.4002 62.9C90.3442 62.836 90.2402 62.784 90.0882 62.744C89.9442 62.704 89.7842 62.684 89.6082 62.684C89.1922 62.684 88.8362 62.816 88.5402 63.08C88.2522 63.336 88.1082 63.728 88.1082 64.256C88.1082 64.44 88.1402 64.636 88.2042 64.844C88.2682 65.052 88.3922 65.264 88.5762 65.48C88.7122 65.448 88.8362 65.424 88.9482 65.408C89.0682 65.392 89.1682 65.384 89.2482 65.384C89.3922 65.384 89.5002 65.416 89.5722 65.48C89.6522 65.536 89.6922 65.612 89.6922 65.708C89.6922 65.78 89.6602 65.84 89.5962 65.888C89.5322 65.936 89.4522 65.96 89.3562 65.96C89.2202 65.96 89.0802 65.924 88.9362 65.852C88.7922 65.772 88.6762 65.704 88.5882 65.648C88.2122 65.84 87.9042 66.088 87.6642 66.392C87.4322 66.688 87.3162 67.088 87.3162 67.592C87.3162 68.12 87.4602 68.556 87.7482 68.9C88.0362 69.236 88.4402 69.492 88.9602 69.668C89.4882 69.836 90.1082 69.92 90.8202 69.92C91.2202 69.92 91.6162 69.876 92.0082 69.788C92.4002 69.7 92.7522 69.568 93.0642 69.392C93.3842 69.216 93.6402 69 93.8322 68.744C94.0242 68.48 94.1202 68.176 94.1202 67.832C94.1202 67.704 94.1002 67.544 94.0602 67.352C94.0282 67.152 93.9442 66.956 93.8082 66.764C93.6722 66.564 93.4482 66.4 93.1362 66.272L93.2202 66.164C93.6522 66.3 93.9802 66.556 94.2042 66.932C94.4282 67.308 94.5402 67.74 94.5402 68.228C94.5402 68.788 94.3682 69.292 94.0242 69.74C93.6802 70.18 93.1962 70.528 92.5722 70.784C91.9562 71.04 91.2322 71.168 90.4002 71.168C89.7362 71.168 89.1322 71.1 88.5882 70.964C88.0522 70.828 87.5882 70.632 87.1962 70.376C86.8122 70.112 86.5122 69.796 86.2962 69.428C86.0882 69.06 85.9842 68.644 85.9842 68.18C85.9842 67.732 86.0762 67.352 86.2602 67.04C86.4522 66.72 86.6842 66.46 86.9562 66.26C87.2282 66.052 87.5002 65.892 87.7722 65.78C88.0442 65.668 88.2602 65.592 88.4202 65.552C88.1722 65.448 87.9442 65.328 87.7362 65.192C87.5362 65.048 87.3722 64.88 87.2442 64.688C87.1242 64.496 87.0642 64.28 87.0642 64.04C87.0642 63.784 87.1322 63.56 87.2682 63.368C87.4042 63.168 87.5842 63.004 87.8082 62.876C88.0402 62.748 88.2962 62.652 88.5762 62.588C88.8642 62.516 89.1562 62.48 89.4522 62.48ZM94.1682 62.336C94.7362 62.336 95.1962 62.484 95.5482 62.78C95.9002 63.076 96.0762 63.492 96.0762 64.028C96.0762 64.436 95.9762 64.78 95.7762 65.06C95.5842 65.34 95.3042 65.568 94.9362 65.744C94.5762 65.92 94.1442 66.06 93.6402 66.164C93.5282 66.204 93.3882 66.252 93.2202 66.308C93.0522 66.356 92.8802 66.404 92.7042 66.452C92.5282 66.5 92.3562 66.548 92.1882 66.596C92.0282 66.644 91.8882 66.684 91.7682 66.716C91.1442 66.852 90.6642 67.008 90.3282 67.184C89.9922 67.352 89.8242 67.584 89.8242 67.88C89.8242 68.08 89.8882 68.252 90.0162 68.396C90.1522 68.54 90.3202 68.652 90.5202 68.732C90.7202 68.812 90.9202 68.852 91.1202 68.852C91.1762 68.852 91.2362 68.848 91.3002 68.84C91.3642 68.824 91.4242 68.808 91.4802 68.792C91.5362 68.768 91.5762 68.748 91.6002 68.732C91.4002 68.668 91.2482 68.568 91.1442 68.432C91.0482 68.288 91.0002 68.124 91.0002 67.94C91.0002 67.684 91.0922 67.488 91.2762 67.352C91.4602 67.216 91.6882 67.148 91.9602 67.148C92.2482 67.148 92.4722 67.224 92.6322 67.376C92.8002 67.528 92.8842 67.724 92.8842 67.964C92.8842 68.212 92.8082 68.42 92.6562 68.588C92.5042 68.748 92.3002 68.868 92.0442 68.948C91.7882 69.02 91.5002 69.056 91.1802 69.056C90.8682 69.056 90.5722 69 90.2922 68.888C90.0202 68.776 89.8002 68.608 89.6322 68.384C89.4722 68.152 89.3922 67.864 89.3922 67.52C89.3922 67.096 89.5002 66.744 89.7162 66.464C89.9322 66.176 90.2402 65.94 90.6402 65.756C91.0482 65.564 91.5282 65.416 92.0802 65.312C92.2482 65.272 92.4322 65.228 92.6322 65.18C92.8402 65.124 93.0522 65.068 93.2682 65.012C93.4842 64.956 93.6842 64.896 93.8682 64.832C94.4442 64.688 94.8882 64.528 95.2002 64.352C95.5202 64.176 95.6802 63.94 95.6802 63.644C95.6802 63.428 95.6122 63.24 95.4762 63.08C95.3482 62.912 95.1802 62.784 94.9722 62.696C94.7642 62.6 94.5482 62.552 94.3242 62.552C94.2522 62.552 94.1842 62.556 94.1202 62.564C94.0642 62.572 94.0162 62.588 93.9762 62.612C94.1762 62.684 94.3242 62.792 94.4202 62.936C94.5162 63.08 94.5642 63.224 94.5642 63.368C94.5642 63.616 94.4722 63.808 94.2882 63.944C94.1042 64.072 93.8762 64.136 93.6042 64.136C93.3322 64.136 93.1082 64.068 92.9322 63.932C92.7562 63.788 92.6682 63.592 92.6682 63.344C92.6682 63.128 92.7282 62.948 92.8482 62.804C92.9762 62.652 93.1522 62.536 93.3762 62.456C93.6002 62.376 93.8642 62.336 94.1682 62.336ZM103.021 62.48L105.937 69.992C106.049 70.28 106.173 70.48 106.309 70.592C106.453 70.696 106.581 70.752 106.693 70.76V71C106.453 70.984 106.169 70.976 105.841 70.976C105.521 70.968 105.197 70.964 104.869 70.964C104.501 70.964 104.153 70.968 103.825 70.976C103.497 70.976 103.237 70.984 103.045 71V70.76C103.453 70.744 103.709 70.676 103.813 70.556C103.925 70.428 103.901 70.16 103.741 69.752L101.701 64.172L101.917 63.86L100.093 68.612C99.9175 69.052 99.8095 69.412 99.7695 69.692C99.7375 69.972 99.7575 70.188 99.8295 70.34C99.9095 70.492 100.033 70.6 100.201 70.664C100.377 70.72 100.585 70.752 100.825 70.76V71C100.561 70.984 100.309 70.976 100.069 70.976C99.8295 70.968 99.5855 70.964 99.3375 70.964C99.1615 70.964 98.9935 70.968 98.8335 70.976C98.6815 70.976 98.5455 70.984 98.4255 71V70.76C98.5935 70.728 98.7655 70.62 98.9415 70.436C99.1175 70.252 99.2895 69.94 99.4575 69.5L102.193 62.48C102.321 62.488 102.457 62.492 102.601 62.492C102.753 62.492 102.893 62.488 103.021 62.48ZM103.861 67.544V67.784H100.285L100.405 67.544H103.861ZM111.025 64.628C111.281 64.628 111.489 64.684 111.649 64.796C111.809 64.9 111.925 65.036 111.997 65.204C112.077 65.372 112.117 65.548 112.117 65.732C112.117 66.028 112.029 66.272 111.853 66.464C111.685 66.648 111.461 66.74 111.181 66.74C110.901 66.74 110.681 66.672 110.521 66.536C110.369 66.392 110.293 66.204 110.293 65.972C110.293 65.748 110.341 65.564 110.437 65.42C110.541 65.268 110.669 65.14 110.821 65.036C110.709 65.004 110.597 65.008 110.485 65.048C110.333 65.072 110.189 65.136 110.053 65.24C109.917 65.336 109.801 65.46 109.705 65.612C109.609 65.756 109.533 65.916 109.477 66.092C109.421 66.26 109.393 66.424 109.393 66.584V69.764C109.393 70.148 109.485 70.408 109.669 70.544C109.861 70.68 110.145 70.748 110.521 70.748V71C110.337 70.992 110.069 70.984 109.717 70.976C109.365 70.96 108.997 70.952 108.613 70.952C108.293 70.952 107.969 70.96 107.641 70.976C107.313 70.984 107.065 70.992 106.897 71V70.748C107.177 70.748 107.373 70.688 107.485 70.568C107.605 70.448 107.665 70.22 107.665 69.884V66.104C107.665 65.744 107.609 65.48 107.497 65.312C107.393 65.136 107.193 65.048 106.897 65.048V64.796C107.153 64.82 107.401 64.832 107.641 64.832C107.977 64.832 108.289 64.82 108.577 64.796C108.873 64.764 109.145 64.72 109.393 64.664V65.78C109.489 65.564 109.617 65.368 109.777 65.192C109.937 65.016 110.121 64.88 110.329 64.784C110.537 64.68 110.769 64.628 111.025 64.628ZM115.455 64.628C115.767 64.628 116.051 64.664 116.307 64.736C116.571 64.8 116.787 64.884 116.955 64.988C117.163 65.116 117.323 65.276 117.435 65.468C117.555 65.652 117.615 65.868 117.615 66.116C117.615 66.396 117.527 66.628 117.351 66.812C117.175 66.988 116.947 67.076 116.667 67.076C116.387 67.076 116.163 66.996 115.995 66.836C115.827 66.676 115.743 66.46 115.743 66.188C115.743 65.932 115.823 65.72 115.983 65.552C116.143 65.376 116.327 65.26 116.535 65.204C116.471 65.124 116.375 65.056 116.247 65C116.119 64.944 115.975 64.916 115.815 64.916C115.567 64.916 115.347 64.988 115.155 65.132C114.971 65.276 114.815 65.476 114.687 65.732C114.559 65.988 114.459 66.288 114.387 66.632C114.323 66.976 114.291 67.352 114.291 67.76C114.291 68.376 114.367 68.86 114.519 69.212C114.679 69.564 114.879 69.812 115.119 69.956C115.367 70.1 115.623 70.172 115.887 70.172C116.039 70.172 116.203 70.148 116.379 70.1C116.563 70.052 116.747 69.956 116.931 69.812C117.123 69.668 117.299 69.464 117.459 69.2L117.663 69.272C117.575 69.568 117.431 69.864 117.231 70.16C117.031 70.456 116.771 70.7 116.451 70.892C116.131 71.076 115.739 71.168 115.275 71.168C114.755 71.168 114.283 71.056 113.859 70.832C113.443 70.6 113.107 70.248 112.851 69.776C112.603 69.296 112.479 68.68 112.479 67.928C112.479 67.208 112.607 66.604 112.863 66.116C113.127 65.62 113.483 65.248 113.931 65C114.379 64.752 114.887 64.628 115.455 64.628ZM120.724 61.616V65.744C120.924 65.328 121.192 65.04 121.528 64.88C121.872 64.712 122.256 64.628 122.68 64.628C123.024 64.628 123.3 64.672 123.508 64.76C123.716 64.84 123.88 64.952 124 65.096C124.136 65.248 124.232 65.444 124.288 65.684C124.352 65.924 124.384 66.248 124.384 66.656V69.884C124.384 70.22 124.44 70.448 124.552 70.568C124.672 70.688 124.872 70.748 125.152 70.748V71C125 70.992 124.768 70.984 124.456 70.976C124.152 70.96 123.856 70.952 123.568 70.952C123.256 70.952 122.952 70.96 122.656 70.976C122.368 70.984 122.152 70.992 122.008 71V70.748C122.248 70.748 122.416 70.688 122.512 70.568C122.608 70.448 122.656 70.22 122.656 69.884V66.152C122.656 65.952 122.636 65.78 122.596 65.636C122.556 65.484 122.48 65.368 122.368 65.288C122.264 65.2 122.112 65.156 121.912 65.156C121.696 65.156 121.496 65.216 121.312 65.336C121.136 65.448 120.992 65.608 120.88 65.816C120.776 66.024 120.724 66.264 120.724 66.536V69.884C120.724 70.22 120.772 70.448 120.868 70.568C120.964 70.688 121.132 70.748 121.372 70.748V71C121.228 70.992 121.016 70.984 120.736 70.976C120.456 70.96 120.172 70.952 119.884 70.952C119.572 70.952 119.256 70.96 118.936 70.976C118.624 70.984 118.388 70.992 118.228 71V70.748C118.508 70.748 118.704 70.688 118.816 70.568C118.936 70.448 118.996 70.22 118.996 69.884V63.056C118.996 62.696 118.94 62.432 118.828 62.264C118.724 62.088 118.524 62 118.228 62V61.748C118.484 61.772 118.732 61.784 118.972 61.784C119.3 61.784 119.612 61.772 119.908 61.748C120.204 61.716 120.476 61.672 120.724 61.616ZM127.149 61.7C127.485 61.7 127.749 61.784 127.941 61.952C128.141 62.112 128.241 62.336 128.241 62.624C128.241 62.912 128.141 63.14 127.941 63.308C127.749 63.468 127.485 63.548 127.149 63.548C126.813 63.548 126.545 63.468 126.345 63.308C126.153 63.14 126.057 62.912 126.057 62.624C126.057 62.336 126.153 62.112 126.345 61.952C126.545 61.784 126.813 61.7 127.149 61.7ZM128.085 64.664V69.884C128.085 70.22 128.141 70.448 128.253 70.568C128.373 70.688 128.573 70.748 128.853 70.748V71C128.709 70.992 128.485 70.984 128.181 70.976C127.877 70.96 127.569 70.952 127.257 70.952C126.945 70.952 126.629 70.96 126.309 70.976C125.989 70.984 125.749 70.992 125.589 71V70.748C125.869 70.748 126.065 70.688 126.177 70.568C126.297 70.448 126.357 70.22 126.357 69.884V66.104C126.357 65.744 126.301 65.48 126.189 65.312C126.085 65.136 125.885 65.048 125.589 65.048V64.796C125.845 64.82 126.093 64.832 126.333 64.832C126.669 64.832 126.981 64.82 127.269 64.796C127.565 64.764 127.837 64.72 128.085 64.664ZM135.123 64.796V65.036C134.971 65.076 134.827 65.172 134.691 65.324C134.555 65.468 134.423 65.716 134.295 66.068L132.543 71.024C132.415 71.016 132.283 71.012 132.147 71.012C132.019 71.012 131.891 71.016 131.763 71.024L129.627 65.72C129.499 65.408 129.371 65.22 129.243 65.156C129.123 65.084 129.019 65.048 128.931 65.048V64.796C129.187 64.812 129.451 64.828 129.723 64.844C130.003 64.852 130.307 64.856 130.635 64.856C130.883 64.856 131.143 64.852 131.415 64.844C131.695 64.828 131.955 64.812 132.195 64.796V65.048C132.027 65.048 131.875 65.056 131.739 65.072C131.611 65.088 131.523 65.14 131.475 65.228C131.427 65.316 131.435 65.472 131.499 65.696L132.903 69.416L132.783 69.584L133.731 66.956C133.883 66.524 133.947 66.172 133.923 65.9C133.899 65.62 133.811 65.412 133.659 65.276C133.507 65.132 133.303 65.052 133.047 65.036V64.796C133.167 64.804 133.295 64.812 133.431 64.82C133.575 64.82 133.711 64.824 133.839 64.832C133.975 64.832 134.095 64.832 134.199 64.832C134.359 64.832 134.527 64.828 134.703 64.82C134.879 64.812 135.019 64.804 135.123 64.796ZM138.341 64.628C139.045 64.628 139.597 64.836 139.997 65.252C140.397 65.668 140.597 66.348 140.597 67.292H136.649L136.625 67.064H139.085C139.093 66.672 139.069 66.312 139.013 65.984C138.957 65.648 138.869 65.38 138.749 65.18C138.629 64.98 138.469 64.88 138.269 64.88C137.989 64.88 137.749 65.056 137.549 65.408C137.357 65.76 137.241 66.344 137.201 67.16L137.237 67.232C137.229 67.328 137.221 67.428 137.213 67.532C137.213 67.636 137.213 67.744 137.213 67.856C137.213 68.408 137.289 68.856 137.441 69.2C137.601 69.544 137.801 69.796 138.041 69.956C138.281 70.108 138.525 70.184 138.773 70.184C138.941 70.184 139.113 70.16 139.289 70.112C139.473 70.056 139.657 69.96 139.841 69.824C140.025 69.68 140.197 69.48 140.357 69.224L140.573 69.296C140.477 69.6 140.325 69.896 140.117 70.184C139.909 70.472 139.645 70.708 139.325 70.892C139.005 71.076 138.621 71.168 138.173 71.168C137.629 71.168 137.149 71.052 136.733 70.82C136.317 70.588 135.989 70.236 135.749 69.764C135.517 69.292 135.401 68.692 135.401 67.964C135.401 67.22 135.525 66.6 135.773 66.104C136.029 65.608 136.377 65.24 136.817 65C137.265 64.752 137.773 64.628 138.341 64.628ZM143.668 64.628C144.004 64.628 144.296 64.672 144.544 64.76C144.8 64.84 144.984 64.92 145.096 65C145.368 65.184 145.536 65.064 145.6 64.64H145.852C145.836 64.864 145.824 65.14 145.816 65.468C145.808 65.788 145.804 66.216 145.804 66.752H145.552C145.512 66.456 145.436 66.164 145.324 65.876C145.212 65.588 145.048 65.352 144.832 65.168C144.624 64.984 144.352 64.892 144.016 64.892C143.784 64.892 143.588 64.96 143.428 65.096C143.268 65.224 143.188 65.412 143.188 65.66C143.188 65.9 143.26 66.112 143.404 66.296C143.548 66.472 143.732 66.644 143.956 66.812C144.188 66.972 144.428 67.144 144.676 67.328C144.94 67.528 145.18 67.728 145.396 67.928C145.612 68.12 145.784 68.332 145.912 68.564C146.04 68.796 146.104 69.072 146.104 69.392C146.104 69.752 146 70.068 145.792 70.34C145.584 70.604 145.308 70.808 144.964 70.952C144.628 71.096 144.252 71.168 143.836 71.168C143.596 71.168 143.38 71.144 143.188 71.096C143.004 71.048 142.844 70.988 142.708 70.916C142.604 70.868 142.504 70.824 142.408 70.784C142.32 70.736 142.236 70.696 142.156 70.664C142.076 70.64 142.004 70.668 141.94 70.748C141.884 70.828 141.84 70.94 141.808 71.084H141.556C141.572 70.828 141.584 70.516 141.592 70.148C141.6 69.78 141.604 69.292 141.604 68.684H141.856C141.904 69.116 141.992 69.5 142.12 69.836C142.248 70.164 142.42 70.424 142.636 70.616C142.86 70.8 143.14 70.892 143.476 70.892C143.612 70.892 143.744 70.864 143.872 70.808C144 70.752 144.104 70.66 144.184 70.532C144.272 70.404 144.316 70.24 144.316 70.04C144.316 69.688 144.2 69.396 143.968 69.164C143.744 68.932 143.456 68.68 143.104 68.408C142.848 68.2 142.604 67.996 142.372 67.796C142.148 67.588 141.964 67.364 141.82 67.124C141.676 66.876 141.604 66.596 141.604 66.284C141.604 65.924 141.7 65.62 141.892 65.372C142.084 65.124 142.336 64.94 142.648 64.82C142.968 64.692 143.308 64.628 143.668 64.628Z" fill="white"/>
</svg>
